<svg width="69" height="69" viewBox="0 0 69 69" fill="none" xmlns="http://www.w3.org/2000/svg">
<path d="M58.2154 21.5676C60.9524 21.566 63.5876 22.6056 65.5863 24.4756C67.5851 26.3456 68.7978 28.9058 68.9784 31.6371L69 32.3443V58.2189C69.0004 60.9561 67.9598 63.591 66.0892 65.5891C64.2185 67.5872 61.658 68.7989 58.9269 68.9784L58.2197 69H32.3471C29.6101 69.0004 26.9754 67.9597 24.9775 66.0889C22.9795 64.2182 21.7679 61.6574 21.5883 58.9262L21.5668 58.2189V32.3443C21.5664 29.6072 22.607 26.9723 24.4776 24.9742C26.3483 22.9761 28.9088 21.7644 31.6399 21.5848L32.3428 21.5676H58.2154ZM58.2154 25.88H32.3514C30.7441 25.88 29.1945 26.4784 28.0043 27.5586C26.8141 28.6388 26.0688 30.1235 25.9134 31.7233L25.8832 32.3443V58.2189C25.8833 59.8269 26.4822 61.3773 27.5633 62.5677C28.6443 63.758 30.1299 64.503 31.7304 64.6574L32.3514 64.6876H58.224C59.832 64.6875 61.3822 64.0885 62.5725 63.0074C63.7627 61.9262 64.5077 60.4405 64.662 58.8399L64.6836 58.2232V32.3487C64.6835 30.7406 64.0845 29.1903 63.0035 27.9999C61.9225 26.8096 60.4368 26.0646 58.8364 25.9102L58.2154 25.88ZM45.2834 30.1924C45.788 30.1923 46.2767 30.3691 46.6644 30.6922C47.0521 31.0153 47.3141 31.4641 47.405 31.9605L47.4351 32.3487V43.1211H58.2197C58.7585 43.1201 59.2781 43.3209 59.6763 43.6839C60.0744 44.0469 60.3223 44.5459 60.3709 45.0825C60.4196 45.6191 60.2656 46.1545 59.9393 46.5833C59.613 47.012 59.138 47.303 58.6078 47.399L58.2197 47.4335H47.4351L47.4395 58.2146C47.4404 58.7534 47.2397 59.2731 46.8767 59.6713C46.5137 60.0695 46.0148 60.3173 45.4782 60.366C44.9416 60.4147 44.4063 60.2607 43.9776 59.9343C43.5488 59.608 43.2578 59.1329 43.1618 58.6027L43.1273 58.2146L43.123 47.4422H32.3471C31.8083 47.4431 31.2887 47.2424 30.8905 46.8793C30.4924 46.5163 30.2445 46.0174 30.1959 45.4808C30.1472 44.9442 30.3012 44.4088 30.6275 43.98C30.9538 43.5513 31.4288 43.2602 31.959 43.1642L32.3471 43.1297H43.123L43.1273 32.3487C43.1273 31.7768 43.3545 31.2283 43.7588 30.824C44.1632 30.4196 44.7116 30.1924 45.2834 30.1924ZM45.982 7.31069L46.1889 7.99205L48.6684 17.2508H44.2011L42.0234 9.10466C41.6071 7.55176 40.6274 6.20958 39.2753 5.33977C37.9233 4.46996 36.2958 4.13486 34.7101 4.3998L34.1021 4.52917L9.1091 11.2307C7.55718 11.647 6.21576 12.6262 5.34611 13.9774C4.47646 15.3286 4.14083 16.9551 4.40458 18.5403L4.53395 19.1526L11.235 44.1431C11.593 45.4803 12.3706 46.6674 13.4534 47.5298C14.5362 48.3922 15.867 48.8845 17.2504 48.9343V53.2467C15.0479 53.2003 12.9124 52.4803 11.1315 51.1834C9.35059 49.8866 8.00972 48.0752 7.28939 45.9932L7.06516 45.2601L0.36845 20.2695C-0.340991 17.6258 -0.0183568 14.8113 1.27091 12.3967C2.56017 9.98218 4.71952 8.14847 7.31095 7.26756L7.99226 7.06488L32.9809 0.367678C35.5073 -0.30961 38.1937 -0.0452375 40.5396 1.11153C42.8855 2.26831 44.7309 4.23857 45.7319 6.6552L45.982 7.31069Z" fill="black"/>
</svg>
