<svg width="18" height="18" viewBox="0 0 18 18" fill="none" xmlns="http://www.w3.org/2000/svg">
<path d="M1.5 12C1.5 9.879 1.5 8.81775 2.15925 8.15925C2.81775 7.5 3.879 7.5 6 7.5H12C14.121 7.5 15.1822 7.5 15.8407 8.15925C16.5 8.81775 16.5 9.879 16.5 12C16.5 14.121 16.5 15.1822 15.8407 15.8407C15.1822 16.5 14.121 16.5 12 16.5H6C3.879 16.5 2.81775 16.5 2.15925 15.8407C1.5 15.1822 1.5 14.121 1.5 12Z" stroke="#9CA3AF"/>
<path d="M4.5 7.5V6C4.5 4.80653 4.97411 3.66193 5.81802 2.81802C6.66193 1.97411 7.80653 1.5 9 1.5C10.1935 1.5 11.3381 1.97411 12.182 2.81802C13.0259 3.66193 13.5 4.80653 13.5 6V7.5" stroke="#9CA3AF" stroke-linecap="round"/>
</svg>
