<svg width="69" height="62" viewBox="0 0 69 62" fill="none" xmlns="http://www.w3.org/2000/svg">
<path d="M6.38938 55.3353V17.0185L0.164886 2.95451C-0.0466132 2.45105 -0.0546449 1.9187 0.140791 1.35746C0.336227 0.796224 0.678909 0.404184 1.16884 0.18134C1.65876 -0.0415045 2.17814 -0.0525087 2.72697 0.148326C3.27579 0.349161 3.65462 0.697183 3.86344 1.19239L10.7425 16.8121H58.2575L65.1366 1.19652C65.3481 0.693056 65.7269 0.340908 66.273 0.140073C66.8219 -0.0607616 67.3412 -0.0456315 67.8312 0.185466C68.3211 0.402808 68.6638 0.793473 68.8592 1.35746C69.0546 1.92145 69.0466 2.4538 68.8351 2.95451L62.6106 17.0185V55.3353C62.6106 57.1786 61.9788 58.7509 60.7152 60.0522C59.4515 61.3507 57.9215 62 56.1251 62H12.8749C11.0812 62 9.55116 61.3507 8.28484 60.0522C7.0212 58.7536 6.38938 57.1813 6.38938 55.3353ZM26.4684 35.1761H42.5316C43.1045 35.1761 43.5824 34.9794 43.9652 34.586C44.3481 34.1926 44.5395 33.7015 44.5395 33.1128C44.5395 32.524 44.3481 32.0329 43.9652 31.6395C43.5824 31.2461 43.1045 31.0494 42.5316 31.0494H26.4684C25.8981 31.0494 25.4203 31.2461 25.0348 31.6395C24.6492 32.0329 24.4578 32.524 24.4605 33.1128C24.4632 33.7015 24.6546 34.1926 25.0348 34.586C25.4149 34.9794 25.8928 35.1761 26.4684 35.1761ZM12.8789 57.8733H56.1251C56.8453 57.8733 57.4369 57.6353 57.9001 57.1593C58.3632 56.6834 58.5948 56.0754 58.5948 55.3353V20.9389H10.4052V55.3353C10.4052 56.0754 10.6368 56.6834 11.0999 57.1593C11.5631 57.6353 12.1561 57.8733 12.8789 57.8733Z" fill="black"/>
</svg>
