
<svg width="69" height="69" viewBox="0 0 69 69" fill="none" xmlns="http://www.w3.org/2000/svg">
<g clip-path="url(#clip0_995_1197)">
<path d="M15.1614 28.4664C12.6861 28.4664 10.8296 30.6323 10.8296 32.7982C10.8296 35.2735 12.9955 37.13 15.1614 37.13C17.6368 37.13 19.4933 34.9641 19.4933 32.7982C19.4933 30.3229 17.3274 28.4664 15.1614 28.4664ZM25.6816 14.2332C23.2063 14.2332 21.3498 16.3991 21.3498 18.565C21.3498 21.0404 23.5157 22.8969 25.6816 22.8969C27.8475 22.8969 30.0135 21.0404 30.0135 18.565C30.0135 16.3991 27.8475 14.2332 25.6816 14.2332ZM43.3184 14.2332C41.1525 14.2332 38.9865 16.3991 38.9865 18.565C38.9865 21.0404 41.1525 22.8969 43.3184 22.8969C45.7937 22.8969 47.6502 20.7309 47.6502 18.565C47.6502 16.3991 45.7937 14.2332 43.3184 14.2332ZM54.148 28.4664C51.9821 28.4664 49.8161 30.6323 49.8161 32.7982C49.8161 35.2735 51.9821 37.13 54.148 37.13C56.6233 37.13 58.4798 34.9641 58.4798 32.7982C58.4798 30.3229 56.3139 28.4664 54.148 28.4664ZM54.148 28.4664C51.9821 28.4664 49.8161 30.6323 49.8161 32.7982C49.8161 35.2735 51.9821 37.13 54.148 37.13C56.6233 37.13 58.4798 34.9641 58.4798 32.7982C58.4798 30.3229 56.3139 28.4664 54.148 28.4664ZM43.3184 14.2332C41.1525 14.2332 38.9865 16.3991 38.9865 18.565C38.9865 21.0404 41.1525 22.8969 43.3184 22.8969C45.7937 22.8969 47.6502 20.7309 47.6502 18.565C47.6502 16.3991 45.7937 14.2332 43.3184 14.2332ZM25.6816 14.2332C23.2063 14.2332 21.3498 16.3991 21.3498 18.565C21.3498 21.0404 23.5157 22.8969 25.6816 22.8969C27.8475 22.8969 30.0135 21.0404 30.0135 18.565C30.0135 16.3991 27.8475 14.2332 25.6816 14.2332ZM15.1614 28.4664C12.6861 28.4664 10.8296 30.6323 10.8296 32.7982C10.8296 35.2735 12.9955 37.13 15.1614 37.13C17.6368 37.13 19.4933 34.9641 19.4933 32.7982C19.4933 30.3229 17.3274 28.4664 15.1614 28.4664ZM15.1614 28.4664C12.6861 28.4664 10.8296 30.6323 10.8296 32.7982C10.8296 35.2735 12.9955 37.13 15.1614 37.13C17.6368 37.13 19.4933 34.9641 19.4933 32.7982C19.4933 30.3229 17.3274 28.4664 15.1614 28.4664ZM25.6816 14.2332C23.2063 14.2332 21.3498 16.3991 21.3498 18.565C21.3498 21.0404 23.5157 22.8969 25.6816 22.8969C27.8475 22.8969 30.0135 21.0404 30.0135 18.565C30.0135 16.3991 27.8475 14.2332 25.6816 14.2332ZM43.3184 14.2332C41.1525 14.2332 38.9865 16.3991 38.9865 18.565C38.9865 21.0404 41.1525 22.8969 43.3184 22.8969C45.7937 22.8969 47.6502 20.7309 47.6502 18.565C47.6502 16.3991 45.7937 14.2332 43.3184 14.2332ZM54.148 28.4664C51.9821 28.4664 49.8161 30.6323 49.8161 32.7982C49.8161 35.2735 51.9821 37.13 54.148 37.13C56.6233 37.13 58.4798 34.9641 58.4798 32.7982C58.4798 30.3229 56.3139 28.4664 54.148 28.4664ZM54.148 28.4664C51.9821 28.4664 49.8161 30.6323 49.8161 32.7982C49.8161 35.2735 51.9821 37.13 54.148 37.13C56.6233 37.13 58.4798 34.9641 58.4798 32.7982C58.4798 30.3229 56.3139 28.4664 54.148 28.4664ZM43.3184 14.2332C41.1525 14.2332 38.9865 16.3991 38.9865 18.565C38.9865 21.0404 41.1525 22.8969 43.3184 22.8969C45.7937 22.8969 47.6502 20.7309 47.6502 18.565C47.6502 16.3991 45.7937 14.2332 43.3184 14.2332ZM25.6816 14.2332C23.2063 14.2332 21.3498 16.3991 21.3498 18.565C21.3498 21.0404 23.5157 22.8969 25.6816 22.8969C27.8475 22.8969 30.0135 21.0404 30.0135 18.565C30.0135 16.3991 27.8475 14.2332 25.6816 14.2332ZM15.1614 28.4664C12.6861 28.4664 10.8296 30.6323 10.8296 32.7982C10.8296 35.2735 12.9955 37.13 15.1614 37.13C17.6368 37.13 19.4933 34.9641 19.4933 32.7982C19.4933 30.3229 17.3274 28.4664 15.1614 28.4664ZM15.1614 28.4664C12.6861 28.4664 10.8296 30.6323 10.8296 32.7982C10.8296 35.2735 12.9955 37.13 15.1614 37.13C17.6368 37.13 19.4933 34.9641 19.4933 32.7982C19.4933 30.3229 17.3274 28.4664 15.1614 28.4664ZM25.6816 14.2332C23.2063 14.2332 21.3498 16.3991 21.3498 18.565C21.3498 21.0404 23.5157 22.8969 25.6816 22.8969C27.8475 22.8969 30.0135 21.0404 30.0135 18.565C30.0135 16.3991 27.8475 14.2332 25.6816 14.2332ZM43.3184 14.2332C41.1525 14.2332 38.9865 16.3991 38.9865 18.565C38.9865 21.0404 41.1525 22.8969 43.3184 22.8969C45.7937 22.8969 47.6502 20.7309 47.6502 18.565C47.6502 16.3991 45.7937 14.2332 43.3184 14.2332ZM54.148 28.4664C51.9821 28.4664 49.8161 30.6323 49.8161 32.7982C49.8161 35.2735 51.9821 37.13 54.148 37.13C56.6233 37.13 58.4798 34.9641 58.4798 32.7982C58.4798 30.3229 56.3139 28.4664 54.148 28.4664ZM54.148 28.4664C51.9821 28.4664 49.8161 30.6323 49.8161 32.7982C49.8161 35.2735 51.9821 37.13 54.148 37.13C56.6233 37.13 58.4798 34.9641 58.4798 32.7982C58.4798 30.3229 56.3139 28.4664 54.148 28.4664ZM43.3184 14.2332C41.1525 14.2332 38.9865 16.3991 38.9865 18.565C38.9865 21.0404 41.1525 22.8969 43.3184 22.8969C45.7937 22.8969 47.6502 20.7309 47.6502 18.565C47.6502 16.3991 45.7937 14.2332 43.3184 14.2332ZM25.6816 14.2332C23.2063 14.2332 21.3498 16.3991 21.3498 18.565C21.3498 21.0404 23.5157 22.8969 25.6816 22.8969C27.8475 22.8969 30.0135 21.0404 30.0135 18.565C30.0135 16.3991 27.8475 14.2332 25.6816 14.2332ZM15.1614 28.4664C12.6861 28.4664 10.8296 30.6323 10.8296 32.7982C10.8296 35.2735 12.9955 37.13 15.1614 37.13C17.6368 37.13 19.4933 34.9641 19.4933 32.7982C19.4933 30.3229 17.3274 28.4664 15.1614 28.4664ZM15.1614 28.4664C12.6861 28.4664 10.8296 30.6323 10.8296 32.7982C10.8296 35.2735 12.9955 37.13 15.1614 37.13C17.6368 37.13 19.4933 34.9641 19.4933 32.7982C19.4933 30.3229 17.3274 28.4664 15.1614 28.4664ZM25.6816 14.2332C23.2063 14.2332 21.3498 16.3991 21.3498 18.565C21.3498 21.0404 23.5157 22.8969 25.6816 22.8969C27.8475 22.8969 30.0135 21.0404 30.0135 18.565C30.0135 16.3991 27.8475 14.2332 25.6816 14.2332ZM43.3184 14.2332C41.1525 14.2332 38.9865 16.3991 38.9865 18.565C38.9865 21.0404 41.1525 22.8969 43.3184 22.8969C45.7937 22.8969 47.6502 20.7309 47.6502 18.565C47.6502 16.3991 45.7937 14.2332 43.3184 14.2332ZM54.148 28.4664C51.9821 28.4664 49.8161 30.6323 49.8161 32.7982C49.8161 35.2735 51.9821 37.13 54.148 37.13C56.6233 37.13 58.4798 34.9641 58.4798 32.7982C58.4798 30.3229 56.3139 28.4664 54.148 28.4664ZM54.148 28.4664C51.9821 28.4664 49.8161 30.6323 49.8161 32.7982C49.8161 35.2735 51.9821 37.13 54.148 37.13C56.6233 37.13 58.4798 34.9641 58.4798 32.7982C58.4798 30.3229 56.3139 28.4664 54.148 28.4664ZM43.3184 14.2332C41.1525 14.2332 38.9865 16.3991 38.9865 18.565C38.9865 21.0404 41.1525 22.8969 43.3184 22.8969C45.7937 22.8969 47.6502 20.7309 47.6502 18.565C47.6502 16.3991 45.7937 14.2332 43.3184 14.2332ZM25.6816 14.2332C23.2063 14.2332 21.3498 16.3991 21.3498 18.565C21.3498 21.0404 23.5157 22.8969 25.6816 22.8969C27.8475 22.8969 30.0135 21.0404 30.0135 18.565C30.0135 16.3991 27.8475 14.2332 25.6816 14.2332ZM15.1614 28.4664C12.6861 28.4664 10.8296 30.6323 10.8296 32.7982C10.8296 35.2735 12.9955 37.13 15.1614 37.13C17.6368 37.13 19.4933 34.9641 19.4933 32.7982C19.4933 30.3229 17.3274 28.4664 15.1614 28.4664ZM34.6547 0C25.3722 0 16.7085 3.713 10.2108 10.2108C3.713 16.7085 0 25.3722 0 34.6547C0 43.9372 3.713 52.6009 10.2108 59.0987C13.3049 62.1928 17.3274 64.6682 21.3498 66.5247C25.6816 68.3812 30.0135 69 34.6547 69C36.8206 69 38.9865 68.0718 40.2242 66.5247C41.4619 64.9776 42.3901 63.1211 42.0807 60.9552C42.0807 58.7892 41.4619 56.9327 40.2242 55.3857L39.9148 55.0762V54.7668C39.9148 54.7668 39.9148 54.7668 39.9148 54.4574C39.9148 54.148 39.6054 53.8386 39.6054 53.5291C39.6054 52.6009 39.9148 51.9821 40.5336 51.6726C41.1525 51.0538 41.7713 50.7444 42.3901 50.7444H48.8879C54.4574 50.7444 59.4081 48.5785 63.4305 44.8655C67.1435 41.1525 69.3094 35.8924 69.3094 30.6323C69 13.9238 53.5291 0 34.6547 0ZM59.4081 41.7713C56.6233 44.5561 52.6009 46.1031 48.5785 46.1031H42.3901C38.0583 46.1031 34.3453 49.5067 34.3453 54.148C34.3453 56.0045 34.9641 57.5516 36.2018 59.0987L36.5112 59.4081V60.0269C36.5112 60.3363 36.8206 60.6457 36.8206 61.2646C36.8206 62.1928 36.5112 62.8117 35.8924 63.1211C35.2735 63.7399 34.6547 64.0493 34.0359 64.0493C26.3004 64.0493 18.8744 60.9552 13.3049 55.3857C7.73543 49.8161 4.64126 42.3901 4.64126 34.6547C4.64126 26.9193 7.73543 19.4933 13.3049 13.9238C18.8744 8.35426 26.3004 5.26009 34.0359 5.26009C50.1256 5.26009 63.4305 16.7085 63.4305 30.9417C64.0493 34.9641 62.5022 38.9865 59.4081 41.7713ZM54.148 28.4664C51.9821 28.4664 49.8161 30.6323 49.8161 32.7982C49.8161 35.2735 51.9821 37.13 54.148 37.13C56.6233 37.13 58.4798 34.9641 58.4798 32.7982C58.4798 30.3229 56.3139 28.4664 54.148 28.4664ZM43.3184 14.2332C41.1525 14.2332 38.9865 16.3991 38.9865 18.565C38.9865 21.0404 41.1525 22.8969 43.3184 22.8969C45.7937 22.8969 47.6502 20.7309 47.6502 18.565C47.6502 16.3991 45.7937 14.2332 43.3184 14.2332ZM25.6816 14.2332C23.2063 14.2332 21.3498 16.3991 21.3498 18.565C21.3498 21.0404 23.5157 22.8969 25.6816 22.8969C27.8475 22.8969 30.0135 21.0404 30.0135 18.565C30.0135 16.3991 27.8475 14.2332 25.6816 14.2332ZM15.1614 28.4664C12.6861 28.4664 10.8296 30.6323 10.8296 32.7982C10.8296 35.2735 12.9955 37.13 15.1614 37.13C17.6368 37.13 19.4933 34.9641 19.4933 32.7982C19.4933 30.3229 17.3274 28.4664 15.1614 28.4664ZM15.1614 28.4664C12.6861 28.4664 10.8296 30.6323 10.8296 32.7982C10.8296 35.2735 12.9955 37.13 15.1614 37.13C17.6368 37.13 19.4933 34.9641 19.4933 32.7982C19.4933 30.3229 17.3274 28.4664 15.1614 28.4664ZM25.6816 14.2332C23.2063 14.2332 21.3498 16.3991 21.3498 18.565C21.3498 21.0404 23.5157 22.8969 25.6816 22.8969C27.8475 22.8969 30.0135 21.0404 30.0135 18.565C30.0135 16.3991 27.8475 14.2332 25.6816 14.2332ZM43.3184 14.2332C41.1525 14.2332 38.9865 16.3991 38.9865 18.565C38.9865 21.0404 41.1525 22.8969 43.3184 22.8969C45.7937 22.8969 47.6502 20.7309 47.6502 18.565C47.6502 16.3991 45.7937 14.2332 43.3184 14.2332ZM54.148 28.4664C51.9821 28.4664 49.8161 30.6323 49.8161 32.7982C49.8161 35.2735 51.9821 37.13 54.148 37.13C56.6233 37.13 58.4798 34.9641 58.4798 32.7982C58.4798 30.3229 56.3139 28.4664 54.148 28.4664ZM54.148 28.4664C51.9821 28.4664 49.8161 30.6323 49.8161 32.7982C49.8161 35.2735 51.9821 37.13 54.148 37.13C56.6233 37.13 58.4798 34.9641 58.4798 32.7982C58.4798 30.3229 56.3139 28.4664 54.148 28.4664ZM43.3184 14.2332C41.1525 14.2332 38.9865 16.3991 38.9865 18.565C38.9865 21.0404 41.1525 22.8969 43.3184 22.8969C45.7937 22.8969 47.6502 20.7309 47.6502 18.565C47.6502 16.3991 45.7937 14.2332 43.3184 14.2332ZM25.6816 14.2332C23.2063 14.2332 21.3498 16.3991 21.3498 18.565C21.3498 21.0404 23.5157 22.8969 25.6816 22.8969C27.8475 22.8969 30.0135 21.0404 30.0135 18.565C30.0135 16.3991 27.8475 14.2332 25.6816 14.2332ZM15.1614 28.4664C12.6861 28.4664 10.8296 30.6323 10.8296 32.7982C10.8296 35.2735 12.9955 37.13 15.1614 37.13C17.6368 37.13 19.4933 34.9641 19.4933 32.7982C19.4933 30.3229 17.3274 28.4664 15.1614 28.4664ZM15.1614 28.4664C12.6861 28.4664 10.8296 30.6323 10.8296 32.7982C10.8296 35.2735 12.9955 37.13 15.1614 37.13C17.6368 37.13 19.4933 34.9641 19.4933 32.7982C19.4933 30.3229 17.3274 28.4664 15.1614 28.4664ZM25.6816 14.2332C23.2063 14.2332 21.3498 16.3991 21.3498 18.565C21.3498 21.0404 23.5157 22.8969 25.6816 22.8969C27.8475 22.8969 30.0135 21.0404 30.0135 18.565C30.0135 16.3991 27.8475 14.2332 25.6816 14.2332ZM43.3184 14.2332C41.1525 14.2332 38.9865 16.3991 38.9865 18.565C38.9865 21.0404 41.1525 22.8969 43.3184 22.8969C45.7937 22.8969 47.6502 20.7309 47.6502 18.565C47.6502 16.3991 45.7937 14.2332 43.3184 14.2332ZM54.148 28.4664C51.9821 28.4664 49.8161 30.6323 49.8161 32.7982C49.8161 35.2735 51.9821 37.13 54.148 37.13C56.6233 37.13 58.4798 34.9641 58.4798 32.7982C58.4798 30.3229 56.3139 28.4664 54.148 28.4664ZM54.148 28.4664C51.9821 28.4664 49.8161 30.6323 49.8161 32.7982C49.8161 35.2735 51.9821 37.13 54.148 37.13C56.6233 37.13 58.4798 34.9641 58.4798 32.7982C58.4798 30.3229 56.3139 28.4664 54.148 28.4664ZM43.3184 14.2332C41.1525 14.2332 38.9865 16.3991 38.9865 18.565C38.9865 21.0404 41.1525 22.8969 43.3184 22.8969C45.7937 22.8969 47.6502 20.7309 47.6502 18.565C47.6502 16.3991 45.7937 14.2332 43.3184 14.2332ZM25.6816 14.2332C23.2063 14.2332 21.3498 16.3991 21.3498 18.565C21.3498 21.0404 23.5157 22.8969 25.6816 22.8969C27.8475 22.8969 30.0135 21.0404 30.0135 18.565C30.0135 16.3991 27.8475 14.2332 25.6816 14.2332ZM15.1614 28.4664C12.6861 28.4664 10.8296 30.6323 10.8296 32.7982C10.8296 35.2735 12.9955 37.13 15.1614 37.13C17.6368 37.13 19.4933 34.9641 19.4933 32.7982C19.4933 30.3229 17.3274 28.4664 15.1614 28.4664ZM15.1614 28.4664C12.6861 28.4664 10.8296 30.6323 10.8296 32.7982C10.8296 35.2735 12.9955 37.13 15.1614 37.13C17.6368 37.13 19.4933 34.9641 19.4933 32.7982C19.4933 30.3229 17.3274 28.4664 15.1614 28.4664ZM25.6816 14.2332C23.2063 14.2332 21.3498 16.3991 21.3498 18.565C21.3498 21.0404 23.5157 22.8969 25.6816 22.8969C27.8475 22.8969 30.0135 21.0404 30.0135 18.565C30.0135 16.3991 27.8475 14.2332 25.6816 14.2332ZM43.3184 14.2332C41.1525 14.2332 38.9865 16.3991 38.9865 18.565C38.9865 21.0404 41.1525 22.8969 43.3184 22.8969C45.7937 22.8969 47.6502 20.7309 47.6502 18.565C47.6502 16.3991 45.7937 14.2332 43.3184 14.2332ZM54.148 28.4664C51.9821 28.4664 49.8161 30.6323 49.8161 32.7982C49.8161 35.2735 51.9821 37.13 54.148 37.13C56.6233 37.13 58.4798 34.9641 58.4798 32.7982C58.4798 30.3229 56.3139 28.4664 54.148 28.4664ZM54.148 28.4664C51.9821 28.4664 49.8161 30.6323 49.8161 32.7982C49.8161 35.2735 51.9821 37.13 54.148 37.13C56.6233 37.13 58.4798 34.9641 58.4798 32.7982C58.4798 30.3229 56.3139 28.4664 54.148 28.4664ZM43.3184 14.2332C41.1525 14.2332 38.9865 16.3991 38.9865 18.565C38.9865 21.0404 41.1525 22.8969 43.3184 22.8969C45.7937 22.8969 47.6502 20.7309 47.6502 18.565C47.6502 16.3991 45.7937 14.2332 43.3184 14.2332ZM25.6816 14.2332C23.2063 14.2332 21.3498 16.3991 21.3498 18.565C21.3498 21.0404 23.5157 22.8969 25.6816 22.8969C27.8475 22.8969 30.0135 21.0404 30.0135 18.565C30.0135 16.3991 27.8475 14.2332 25.6816 14.2332ZM15.1614 28.4664C12.6861 28.4664 10.8296 30.6323 10.8296 32.7982C10.8296 35.2735 12.9955 37.13 15.1614 37.13C17.6368 37.13 19.4933 34.9641 19.4933 32.7982C19.4933 30.3229 17.3274 28.4664 15.1614 28.4664ZM15.1614 28.4664C12.6861 28.4664 10.8296 30.6323 10.8296 32.7982C10.8296 35.2735 12.9955 37.13 15.1614 37.13C17.6368 37.13 19.4933 34.9641 19.4933 32.7982C19.4933 30.3229 17.3274 28.4664 15.1614 28.4664ZM25.6816 14.2332C23.2063 14.2332 21.3498 16.3991 21.3498 18.565C21.3498 21.0404 23.5157 22.8969 25.6816 22.8969C27.8475 22.8969 30.0135 21.0404 30.0135 18.565C30.0135 16.3991 27.8475 14.2332 25.6816 14.2332ZM43.3184 14.2332C41.1525 14.2332 38.9865 16.3991 38.9865 18.565C38.9865 21.0404 41.1525 22.8969 43.3184 22.8969C45.7937 22.8969 47.6502 20.7309 47.6502 18.565C47.6502 16.3991 45.7937 14.2332 43.3184 14.2332ZM54.148 28.4664C51.9821 28.4664 49.8161 30.6323 49.8161 32.7982C49.8161 35.2735 51.9821 37.13 54.148 37.13C56.6233 37.13 58.4798 34.9641 58.4798 32.7982C58.4798 30.3229 56.3139 28.4664 54.148 28.4664ZM15.1614 28.4664C12.6861 28.4664 10.8296 30.6323 10.8296 32.7982C10.8296 35.2735 12.9955 37.13 15.1614 37.13C17.6368 37.13 19.4933 34.9641 19.4933 32.7982C19.4933 30.3229 17.3274 28.4664 15.1614 28.4664ZM25.6816 14.2332C23.2063 14.2332 21.3498 16.3991 21.3498 18.565C21.3498 21.0404 23.5157 22.8969 25.6816 22.8969C27.8475 22.8969 30.0135 21.0404 30.0135 18.565C30.0135 16.3991 27.8475 14.2332 25.6816 14.2332ZM43.3184 14.2332C41.1525 14.2332 38.9865 16.3991 38.9865 18.565C38.9865 21.0404 41.1525 22.8969 43.3184 22.8969C45.7937 22.8969 47.6502 20.7309 47.6502 18.565C47.6502 16.3991 45.7937 14.2332 43.3184 14.2332ZM54.148 28.4664C51.9821 28.4664 49.8161 30.6323 49.8161 32.7982C49.8161 35.2735 51.9821 37.13 54.148 37.13C56.6233 37.13 58.4798 34.9641 58.4798 32.7982C58.4798 30.3229 56.3139 28.4664 54.148 28.4664Z" fill="black"/>
</g>
<defs>
<clipPath id="clip0_995_1197">
<rect width="69" height="69" fill="white"/>
</clipPath>
</defs>
</svg>
