<svg width="67" height="61" viewBox="0 0 67 61" fill="none" xmlns="http://www.w3.org/2000/svg">
<path fill-rule="evenodd" clip-rule="evenodd" d="M4.27587 42.072C7.01367 39.3342 10.7269 37.7961 14.5987 37.7961H33.4969C37.3687 37.7961 41.0819 39.3342 43.8197 42.072C46.5575 44.8098 48.0956 48.5231 48.0956 52.3949V58.6943C48.0956 59.7988 47.2002 60.6943 46.0956 60.6943C44.991 60.6943 44.0956 59.7988 44.0956 58.6943V52.3949C44.0956 49.5839 42.9789 46.8881 40.9913 44.9004C39.0036 42.9128 36.3078 41.7961 33.4969 41.7961H14.5987C11.7878 41.7961 9.09195 42.9128 7.1043 44.9004C5.11665 46.8881 4 49.5839 4 52.3949V58.6943C4 59.7988 3.10457 60.6943 2 60.6943C0.89543 60.6943 0 59.7988 0 58.6943V52.3949C0 48.5231 1.53808 44.8098 4.27587 42.072Z" fill="black"/>
<path fill-rule="evenodd" clip-rule="evenodd" d="M24.048 4C18.1944 4 13.4492 8.74522 13.4492 14.5987C13.4492 20.4523 18.1944 25.1975 24.048 25.1975C29.9015 25.1975 34.6467 20.4523 34.6467 14.5987C34.6467 8.74522 29.9015 4 24.048 4ZM9.44922 14.5987C9.44922 6.53608 15.9853 0 24.048 0C32.1106 0 38.6467 6.53608 38.6467 14.5987C38.6467 22.6614 32.1106 29.1975 24.048 29.1975C15.9853 29.1975 9.44922 22.6614 9.44922 14.5987Z" fill="black"/>
<path fill-rule="evenodd" clip-rule="evenodd" d="M44.1582 1.91309C44.4322 0.843043 45.5217 0.197696 46.5918 0.471673C49.732 1.2757 52.5154 3.10201 54.503 5.66266C56.4906 8.22331 57.5695 11.3727 57.5695 14.6142C57.5695 17.8557 56.4906 21.0051 54.503 23.5657C52.5154 26.1264 49.732 27.9527 46.5918 28.7567C45.5217 29.0307 44.4322 28.3854 44.1582 27.3153C43.8842 26.2453 44.5296 25.1557 45.5996 24.8817C47.8794 24.298 49.9002 22.9721 51.3432 21.1131C52.7862 19.254 53.5695 16.9676 53.5695 14.6142C53.5695 12.2608 52.7862 9.97439 51.3432 8.11535C49.9002 6.2563 47.8794 4.9304 45.5996 4.34667C44.5296 4.0727 43.8842 2.98315 44.1582 1.91309ZM53.6083 39.7054C53.8844 38.6359 54.9753 37.9928 56.0448 38.2689C59.1767 39.0776 61.9513 40.9035 63.9331 43.4599C65.9148 46.0164 66.9914 49.1586 66.9938 52.3932L66.9938 52.3947V58.694C66.9938 59.7986 66.0984 60.694 64.9938 60.694C63.8892 60.694 62.9938 59.7986 62.9938 58.694V52.3962C62.9921 50.0478 62.2104 47.7666 60.7717 45.9106C59.3329 44.0546 57.3185 42.729 55.0448 42.1419C53.9753 41.8657 53.3321 40.7749 53.6083 39.7054Z" fill="black"/>
</svg>
