<svg width="402" height="874" viewBox="0 0 402 874" fill="none" xmlns="http://www.w3.org/2000/svg">
<mask id="mask0_33_111" style="mask-type:alpha" maskUnits="userSpaceOnUse" x="0" y="0" width="402" height="874">
<rect width="402" height="874" fill="#F3F4F6"/>
</mask>
<g mask="url(#mask0_33_111)">
<g opacity="0.2">
<path d="M125.166 72.5789C126.646 80.9817 127.336 93.3456 116.035 96.6808C129.363 99.445 129.336 105.733 134.163 113.055C132.631 106.117 135.135 95.015 143.721 91.2067C130.457 88.2569 127.71 81.3383 125.166 72.5789Z" fill="#A78BFA"/>
<path d="M259.08 473.86C260.298 480.826 260.893 491.075 251.511 493.825C262.553 496.125 262.536 501.321 266.525 507.402C265.239 501.647 267.322 492.457 274.452 489.3C263.464 486.859 261.197 481.113 259.08 473.86Z" fill="#A78BFA"/>
<path d="M120.28 404.396C121.499 411.363 122.094 421.612 112.712 424.361C123.754 426.662 123.736 431.858 127.725 437.939C126.44 432.184 128.523 422.994 135.653 419.837C124.664 417.396 122.377 411.655 120.28 404.396Z" fill="#A78BFA"/>
<path d="M328.315 665.885C330.842 665.311 332.425 662.799 331.852 660.274C331.279 657.75 328.766 656.168 326.239 656.741C323.712 657.315 322.129 659.827 322.702 662.352C323.275 664.877 325.788 666.459 328.315 665.885Z" fill="#A78BFA"/>
<path d="M344.194 14.5592C346.721 13.9856 348.305 11.4737 347.731 8.94876C347.158 6.42385 344.645 4.84207 342.118 5.41574C339.592 5.98941 338.008 8.50131 338.581 11.0262C339.155 13.5511 341.668 15.1329 344.194 14.5592Z" fill="#A78BFA"/>
<path d="M58.946 187.651C61.4727 187.077 63.0563 184.565 62.483 182.041C61.9097 179.516 59.3967 177.934 56.87 178.508C54.3433 179.081 52.7598 181.593 53.333 184.118C53.9063 186.643 56.4193 188.225 58.946 187.651Z" fill="#A78BFA"/>
<path d="M161.18 585.099C163.706 584.526 165.29 582.014 164.717 579.489C164.143 576.964 161.63 575.382 159.104 575.956C156.577 576.53 154.994 579.042 155.567 581.566C156.14 584.091 158.653 585.673 161.18 585.099Z" fill="#A78BFA"/>
<path d="M149.675 258.692L146.957 240.976L156.709 255.77L165.38 241.131L162.229 257.764L180.831 254.844L165.357 265.323L181.263 277.843L162.353 272.906L166.778 292.114L155.379 276.562L148.248 292.24L149.51 272.468C149.51 272.468 131.009 277.245 131.394 276.303C135.836 273.265 142.244 268.434 146.686 265.396C140.93 260.293 136.939 257.31 132.339 253.248C138.772 255.12 145.185 256.998 149.675 258.692Z" fill="#A78BFA"/>
</g>
</g>
</svg>
