<svg width="1921" height="1081" viewBox="0 0 1921 1081" fill="none" xmlns="http://www.w3.org/2000/svg">
<mask id="mask0_109_1293" style="mask-type:alpha" maskUnits="userSpaceOnUse" x="0" y="0" width="1921" height="1081">
<rect x="0.540527" y="0.753418" width="1920" height="1080" fill="#101324"/>
</mask>
<g mask="url(#mask0_109_1293)">
<g opacity="0.1">
<path d="M1234.72 501.127C1236.94 513.817 1238.02 532.465 1220.95 537.497C1241.06 541.668 1241.01 551.14 1248.3 562.188C1245.98 551.72 1249.76 534.949 1262.73 529.226C1242.71 524.804 1238.56 514.345 1234.72 501.127Z" fill="white"/>
<path d="M1322.92 61.4659C1325.14 74.1561 1326.21 92.8041 1309.14 97.8368C1329.26 102.008 1329.21 111.48 1336.49 122.527C1334.18 112.059 1337.95 95.2886 1350.93 89.5653C1330.9 85.1156 1326.75 74.6564 1322.92 61.4659Z" fill="white"/>
<path d="M186.871 79.0599C188.875 90.4382 189.81 107.18 174.506 111.697C192.554 115.44 192.518 123.954 199.055 133.869C196.979 124.474 200.37 109.441 211.996 104.284C194.036 100.29 190.317 90.921 186.871 79.0599Z" fill="white"/>
<path d="M368.206 622.438C369.855 631.872 370.661 645.75 357.957 649.474C372.909 652.589 372.885 659.625 378.287 667.859C376.546 660.066 379.367 647.621 389.022 643.346C374.142 640.041 371.073 632.261 368.206 622.438Z" fill="white"/>
<path d="M180.256 528.378C181.905 537.811 182.711 551.689 170.007 555.413C184.959 558.528 184.935 565.564 190.337 573.798C188.596 566.006 191.417 553.561 201.072 549.286C186.192 545.981 183.095 538.207 180.256 528.378Z" fill="white"/>
<path d="M461.958 882.463C465.379 881.686 467.523 878.284 466.747 874.865C465.971 871.446 462.568 869.304 459.146 870.081C455.725 870.858 453.581 874.259 454.357 877.678C455.133 881.097 458.536 883.239 461.958 882.463Z" fill="white"/>
<path d="M1635.56 697.589C1638.99 696.812 1641.13 693.411 1640.35 689.992C1639.58 686.573 1636.18 684.431 1632.75 685.208C1629.33 685.985 1627.19 689.386 1627.96 692.805C1628.74 696.224 1632.14 698.366 1635.56 697.589Z" fill="white"/>
<path d="M1240.61 1039.18C1244.03 1038.4 1246.18 1035 1245.4 1031.58C1244.62 1028.16 1241.22 1026.02 1237.8 1026.79C1234.38 1027.57 1232.23 1030.97 1233.01 1034.39C1233.79 1037.81 1237.19 1039.95 1240.61 1039.18Z" fill="white"/>
<path d="M1497.76 444.905C1501.18 444.128 1503.33 440.727 1502.55 437.308C1501.78 433.889 1498.37 431.747 1494.95 432.524C1491.53 433.3 1489.39 436.702 1490.16 440.121C1490.94 443.54 1494.34 445.682 1497.76 444.905Z" fill="white"/>
<path d="M483.46 0.494787C486.882 -0.282031 489.026 -3.68342 488.25 -7.10243C487.473 -10.5214 484.07 -12.6634 480.649 -11.8865C477.228 -11.1097 475.083 -7.70833 475.86 -4.28932C476.636 -0.870312 480.039 1.27161 483.46 0.494787Z" fill="white"/>
<path d="M97.2021 234.88C100.623 234.103 102.768 230.702 101.992 227.283C101.215 223.864 97.8124 221.722 94.3909 222.499C90.9695 223.276 88.8252 226.677 89.6015 230.096C90.3778 233.515 93.7807 235.657 97.2021 234.88Z" fill="white"/>
<path d="M235.638 773.07C239.059 772.293 241.204 768.892 240.427 765.473C239.651 762.054 236.248 759.912 232.827 760.689C229.406 761.465 227.261 764.867 228.037 768.286C228.814 771.705 232.217 773.847 235.638 773.07Z" fill="white"/>
<path d="M1296.98 355.406C1300.4 354.63 1302.55 351.228 1301.77 347.809C1300.99 344.39 1297.59 342.248 1294.17 343.025C1290.75 343.802 1288.6 347.203 1289.38 350.622C1290.16 354.041 1293.56 356.183 1296.98 355.406Z" fill="white"/>
<path d="M1731.23 72.7448C1734.65 71.968 1736.79 68.5666 1736.02 65.1476C1735.24 61.7286 1731.84 59.5866 1728.41 60.3635C1724.99 61.1403 1722.85 64.5417 1723.63 67.9607C1724.4 71.3797 1727.8 73.5216 1731.23 72.7448Z" fill="white"/>
<path d="M220.06 331.077L216.379 307.089L229.584 327.121L241.326 307.298L237.059 329.821L262.248 325.867L241.294 340.057L262.833 357.01L237.227 350.325L243.219 376.335L227.783 355.276L218.127 376.506L219.836 349.731C219.836 349.731 194.784 356.2 195.305 354.925C201.32 350.811 209.997 344.269 216.012 340.155C208.218 333.245 202.813 329.206 196.584 323.706C205.296 326.241 213.98 328.783 220.06 331.077Z" fill="white"/>
<path d="M1228.96 764.069L1225.28 740.081L1238.49 760.113L1250.23 740.29L1245.96 762.813L1271.15 758.859L1250.2 773.049L1271.74 790.002L1246.13 783.317L1252.12 809.327L1236.69 788.268L1227.03 809.498L1228.74 782.723C1228.74 782.723 1203.69 789.193 1204.21 787.917C1210.22 783.803 1218.9 777.261 1224.91 773.147C1217.12 766.237 1211.72 762.198 1205.49 756.698C1214.19 759.206 1222.88 761.748 1228.96 764.069Z" fill="white"/>
<path d="M1667.21 1003.37L1664.59 986.369L1673.95 1000.56L1682.29 986.517L1679.28 1002.48L1697.14 999.665L1682.29 1009.72L1697.55 1021.73L1679.42 1017L1683.66 1035.42L1672.72 1020.51L1665.86 1035.56L1667.08 1016.59C1667.08 1016.59 1649.33 1021.17 1649.71 1020.27C1653.97 1017.37 1660.13 1012.73 1664.39 1009.82C1658.87 1004.91 1655.04 1002.08 1650.62 998.162C1656.73 999.93 1662.9 1001.71 1667.21 1003.37Z" fill="white"/>
<path d="M1818.59 334.596L1815.97 317.598L1825.33 331.791L1833.67 317.747L1830.66 333.706L1848.52 330.894L1833.67 340.951L1848.93 352.964L1830.8 348.227L1835.04 366.649L1824.1 351.744L1817.25 366.813L1818.47 347.845C1818.47 347.845 1800.72 352.424 1801.09 351.529C1805.36 348.623 1811.51 343.985 1815.77 341.079C1810.26 336.168 1806.43 333.334 1802.01 329.419C1808.11 331.159 1814.27 332.942 1818.59 334.596Z" fill="white"/>
</g>
</g>
</svg>
