<svg width="32" height="34" viewBox="0 0 32 34" fill="none" xmlns="http://www.w3.org/2000/svg">
<path d="M23.9212 13.7192L23.9866 13.6809C24.0924 13.6097 24.1652 13.5023 24.1965 13.3851C24.2286 13.2641 24.2191 13.1324 24.1611 13.0164L17.6758 1.78515C17.6055 1.66335 17.4898 1.58023 17.3619 1.54608C17.243 1.5144 17.1133 1.52345 16.9994 1.57941L16.9405 1.61356C16.8348 1.68475 16.7619 1.79215 16.7307 1.90942C16.699 2.02792 16.708 2.15754 16.7648 2.27193C18.714 5.87563 21.0907 10.0373 23.2509 13.5093C23.3213 13.6311 23.4369 13.7142 23.5657 13.7484C23.6821 13.7797 23.8089 13.7719 23.9212 13.7192ZM8.76944 23.0959C8.38471 23.0959 8.0724 22.7836 8.0724 22.3989C8.0724 22.0141 8.38471 21.7018 8.76944 21.7018H23.2633C23.648 21.7018 23.9603 22.0141 23.9603 22.3989C23.9603 22.7836 23.648 23.0959 23.2633 23.0959H8.76944ZM25.693 31.2151L27.8031 16.9468H4.22962L6.33967 31.2151C6.37712 31.4703 6.50303 31.6908 6.68202 31.8455C6.86019 31.999 7.09597 32.0903 7.35561 32.0903H24.6771C24.9367 32.0903 25.1725 31.999 25.3503 31.8455C25.5293 31.6908 25.6556 31.4703 25.693 31.2151ZM29.2107 16.9468L27.0707 31.4168C26.9826 32.0122 26.6855 32.5286 26.2596 32.8964C25.8321 33.2651 25.2779 33.4844 24.6771 33.4844H7.35561C6.75485 33.4844 6.20059 33.2651 5.77266 32.8964C5.34678 32.5282 5.04928 32.0118 4.96205 31.4168L2.82238 16.9468H2.07637C1.59988 16.9468 1.1666 16.7522 0.853464 16.439C0.540331 16.1259 0.345703 15.6926 0.345703 15.2161V13.9554C0.345703 13.5036 0.522638 13.0892 0.810671 12.7794L0.853464 12.7325C1.1666 12.4193 1.59988 12.2247 2.07637 12.2247H6.72687L13.1541 1.08811C13.4166 0.633841 13.8413 0.327291 14.3116 0.201379C14.7576 0.0816399 15.2494 0.12361 15.688 0.354037C15.7283 0.371319 15.767 0.392716 15.804 0.418227C15.8793 0.464312 15.9497 0.514924 16.0164 0.56965C16.083 0.514924 16.1538 0.464312 16.2291 0.418227L16.325 0.363089C16.7681 0.124845 17.2681 0.0795825 17.7215 0.201379C18.1918 0.327291 18.6165 0.633841 18.879 1.08811L25.3062 12.2247H29.9563C30.4304 12.2247 30.8628 12.4193 31.1768 12.7325C31.4924 13.0489 31.687 13.4814 31.687 13.9554V15.2161C31.687 15.6926 31.4924 16.1259 31.1792 16.439C30.8628 16.7522 30.4304 16.9468 29.9563 16.9468H29.2107ZM8.04647 13.6809L8.1119 13.7192C8.22423 13.7719 8.35097 13.7793 8.46741 13.7484C8.59579 13.7142 8.71142 13.6311 8.78178 13.5093L15.2683 2.27193C15.3251 2.15754 15.3341 2.02792 15.3024 1.90942C15.2712 1.79215 15.1983 1.68475 15.0926 1.61356L15.0259 1.57447C14.914 1.52222 14.7877 1.51481 14.6712 1.54608C14.5433 1.58023 14.4276 1.66335 14.3573 1.78515L7.87201 13.0168C7.81399 13.1324 7.80453 13.2645 7.83662 13.3851C7.86789 13.5023 7.94072 13.6097 8.04647 13.6809ZM8.82704 15.0931C8.37442 15.2145 7.8753 15.1688 7.43214 14.9306L7.37906 14.9026C6.9252 14.6405 6.61824 14.2158 6.49192 13.7447C6.48081 13.7031 6.47093 13.6612 6.4627 13.6188H2.07637C1.98379 13.6188 1.89902 13.6571 1.83854 13.7175L1.81961 13.7356C1.77023 13.7945 1.73978 13.8714 1.73978 13.9554V15.2161C1.73978 15.3087 1.77805 15.3935 1.83854 15.454C1.89902 15.5145 1.98379 15.5527 2.07637 15.5527H3.42272H28.61H29.9563C30.0497 15.5527 30.1349 15.5149 30.1954 15.4552C30.2547 15.3935 30.2929 15.3087 30.2929 15.2161V13.9554C30.2929 13.862 30.2551 13.7768 30.1954 13.7163C30.1349 13.6566 30.0497 13.6188 29.9563 13.6188H25.5704C25.5622 13.6612 25.5523 13.7031 25.5412 13.7447C25.4149 14.2158 25.1079 14.6405 24.6541 14.9026L24.601 14.9302C24.1578 15.1688 23.6587 15.2145 23.2061 15.0931C22.7349 14.9672 22.3103 14.6606 22.0478 14.2064L21.7087 13.6188H10.324L9.98494 14.2064C9.72242 14.6606 9.29777 14.9672 8.82704 15.0931ZM16.0172 3.75735L11.1288 12.2247H20.9039L16.0172 3.75735ZM10.6951 30.0716C10.3104 30.0716 9.99811 29.7593 9.99811 29.3746C9.99811 28.9899 10.3104 28.6776 10.6951 28.6776H21.3376C21.7223 28.6776 22.0346 28.9899 22.0346 29.3746C22.0346 29.7593 21.7223 30.0716 21.3376 30.0716H10.6951ZM9.84709 26.5836C9.46236 26.5836 9.15005 26.2713 9.15005 25.8865C9.15005 25.5018 9.46236 25.1895 9.84709 25.1895H22.1856C22.5703 25.1895 22.8827 25.5018 22.8827 25.8865C22.8827 26.2713 22.5703 26.5836 22.1856 26.5836H9.84709Z" fill="white"/>
</svg>
